<mxfile host="Electron" agent="Mozilla/5.0 (Macintosh; Intel Mac OS X 10_15_7) AppleWebKit/537.36 (KHTML, like Gecko) draw.io/24.7.5 Chrome/126.0.6478.183 Electron/31.3.0 Safari/537.36" version="24.7.5">
  <diagram name="PÃ¡gina-1" id="7_rs1MakoFYVDaNzwbXh">
    <mxGraphModel dx="1323" dy="2059" grid="1" gridSize="10" guides="1" tooltips="1" connect="1" arrows="1" fold="1" page="1" pageScale="1" pageWidth="827" pageHeight="1169" math="0" shadow="0">
      <root>
        <mxCell id="0" />
        <mxCell id="1" parent="0" />
        <mxCell id="Cq4BFAkTLTm9UH8a_Z4k-1" value="Entidades&lt;div&gt;Llamada&lt;/div&gt;&lt;div&gt;Contacto&lt;/div&gt;&lt;div&gt;Compra&lt;/div&gt;&lt;div&gt;Factura&lt;/div&gt;&lt;div&gt;Reclamo&lt;/div&gt;&lt;div&gt;Comentario&lt;/div&gt;&lt;div&gt;Estado&lt;/div&gt;&lt;div&gt;Operador&lt;/div&gt;&lt;div&gt;Junior&lt;/div&gt;&lt;div&gt;Senior&lt;/div&gt;" style="text;html=1;align=center;verticalAlign=middle;resizable=0;points=[];autosize=1;strokeColor=none;fillColor=none;" vertex="1" parent="1">
          <mxGeometry x="35" y="-2" width="90" height="170" as="geometry" />
        </mxCell>
        <mxCell id="Cq4BFAkTLTm9UH8a_Z4k-24" style="edgeStyle=orthogonalEdgeStyle;rounded=0;orthogonalLoop=1;jettySize=auto;html=1;exitX=1;exitY=0.5;exitDx=0;exitDy=0;entryX=0;entryY=0.5;entryDx=0;entryDy=0;endArrow=none;endFill=0;" edge="1" parent="1" source="Cq4BFAkTLTm9UH8a_Z4k-2" target="Cq4BFAkTLTm9UH8a_Z4k-23">
          <mxGeometry relative="1" as="geometry" />
        </mxCell>
        <mxCell id="Cq4BFAkTLTm9UH8a_Z4k-30" style="edgeStyle=orthogonalEdgeStyle;rounded=0;orthogonalLoop=1;jettySize=auto;html=1;exitX=0.5;exitY=1;exitDx=0;exitDy=0;entryX=0.5;entryY=0;entryDx=0;entryDy=0;endArrow=none;endFill=0;" edge="1" parent="1" source="Cq4BFAkTLTm9UH8a_Z4k-2" target="Cq4BFAkTLTm9UH8a_Z4k-29">
          <mxGeometry relative="1" as="geometry" />
        </mxCell>
        <mxCell id="Cq4BFAkTLTm9UH8a_Z4k-2" value="CONTACTO" style="whiteSpace=wrap;html=1;align=center;" vertex="1" parent="1">
          <mxGeometry x="350" width="100" height="40" as="geometry" />
        </mxCell>
        <mxCell id="Cq4BFAkTLTm9UH8a_Z4k-117" style="edgeStyle=orthogonalEdgeStyle;rounded=0;orthogonalLoop=1;jettySize=auto;html=1;exitX=1;exitY=0.5;exitDx=0;exitDy=0;entryX=0.5;entryY=0;entryDx=0;entryDy=0;endArrow=none;endFill=0;" edge="1" parent="1" source="Cq4BFAkTLTm9UH8a_Z4k-3" target="Cq4BFAkTLTm9UH8a_Z4k-116">
          <mxGeometry relative="1" as="geometry" />
        </mxCell>
        <mxCell id="Cq4BFAkTLTm9UH8a_Z4k-3" value="TIPO DOCUMENTO" style="whiteSpace=wrap;html=1;align=center;" vertex="1" parent="1">
          <mxGeometry x="690" width="100" height="40" as="geometry" />
        </mxCell>
        <mxCell id="Cq4BFAkTLTm9UH8a_Z4k-4" value="nroDoc" style="ellipse;whiteSpace=wrap;html=1;align=center;fontStyle=4;" vertex="1" parent="1">
          <mxGeometry x="200" y="-50" width="100" height="40" as="geometry" />
        </mxCell>
        <mxCell id="Cq4BFAkTLTm9UH8a_Z4k-5" value="nombre" style="ellipse;whiteSpace=wrap;html=1;align=center;" vertex="1" parent="1">
          <mxGeometry x="210" y="-110" width="100" height="40" as="geometry" />
        </mxCell>
        <mxCell id="Cq4BFAkTLTm9UH8a_Z4k-6" value="apellido" style="ellipse;whiteSpace=wrap;html=1;align=center;" vertex="1" parent="1">
          <mxGeometry x="270" y="-160" width="100" height="40" as="geometry" />
        </mxCell>
        <mxCell id="Cq4BFAkTLTm9UH8a_Z4k-7" value="fechaNac" style="ellipse;whiteSpace=wrap;html=1;align=center;" vertex="1" parent="1">
          <mxGeometry x="390" y="-160" width="100" height="40" as="geometry" />
        </mxCell>
        <mxCell id="Cq4BFAkTLTm9UH8a_Z4k-8" value="domicilio" style="ellipse;whiteSpace=wrap;html=1;align=center;" vertex="1" parent="1">
          <mxGeometry x="450" y="-100" width="100" height="40" as="geometry" />
        </mxCell>
        <mxCell id="Cq4BFAkTLTm9UH8a_Z4k-9" value="calle" style="ellipse;whiteSpace=wrap;html=1;align=center;" vertex="1" parent="1">
          <mxGeometry x="550" y="-160" width="100" height="40" as="geometry" />
        </mxCell>
        <mxCell id="Cq4BFAkTLTm9UH8a_Z4k-10" value="nro" style="ellipse;whiteSpace=wrap;html=1;align=center;" vertex="1" parent="1">
          <mxGeometry x="580" y="-110" width="100" height="40" as="geometry" />
        </mxCell>
        <mxCell id="Cq4BFAkTLTm9UH8a_Z4k-11" value="id" style="ellipse;whiteSpace=wrap;html=1;align=center;fontStyle=4;" vertex="1" parent="1">
          <mxGeometry x="757" y="-80" width="70" height="40" as="geometry" />
        </mxCell>
        <mxCell id="Cq4BFAkTLTm9UH8a_Z4k-12" value="descripcion" style="ellipse;whiteSpace=wrap;html=1;align=center;" vertex="1" parent="1">
          <mxGeometry x="827" y="-50" width="100" height="40" as="geometry" />
        </mxCell>
        <mxCell id="Cq4BFAkTLTm9UH8a_Z4k-13" value="" style="endArrow=none;html=1;rounded=0;entryX=1;entryY=0.5;entryDx=0;entryDy=0;exitX=0.11;exitY=-0.025;exitDx=0;exitDy=0;exitPerimeter=0;" edge="1" parent="1" source="Cq4BFAkTLTm9UH8a_Z4k-2" target="Cq4BFAkTLTm9UH8a_Z4k-4">
          <mxGeometry width="50" height="50" relative="1" as="geometry">
            <mxPoint x="340" y="10" as="sourcePoint" />
            <mxPoint x="390" y="-40" as="targetPoint" />
          </mxGeometry>
        </mxCell>
        <mxCell id="Cq4BFAkTLTm9UH8a_Z4k-14" value="" style="endArrow=none;html=1;rounded=0;entryX=0.99;entryY=0.7;entryDx=0;entryDy=0;exitX=0.25;exitY=0;exitDx=0;exitDy=0;entryPerimeter=0;" edge="1" parent="1" source="Cq4BFAkTLTm9UH8a_Z4k-2" target="Cq4BFAkTLTm9UH8a_Z4k-5">
          <mxGeometry width="50" height="50" relative="1" as="geometry">
            <mxPoint x="381" y="-41" as="sourcePoint" />
            <mxPoint x="320" y="-70" as="targetPoint" />
          </mxGeometry>
        </mxCell>
        <mxCell id="Cq4BFAkTLTm9UH8a_Z4k-15" value="" style="endArrow=none;html=1;rounded=0;entryX=0.99;entryY=0.7;entryDx=0;entryDy=0;exitX=0.38;exitY=-0.025;exitDx=0;exitDy=0;entryPerimeter=0;exitPerimeter=0;" edge="1" parent="1" source="Cq4BFAkTLTm9UH8a_Z4k-2">
          <mxGeometry width="50" height="50" relative="1" as="geometry">
            <mxPoint x="406" y="-38" as="sourcePoint" />
            <mxPoint x="340" y="-120" as="targetPoint" />
          </mxGeometry>
        </mxCell>
        <mxCell id="Cq4BFAkTLTm9UH8a_Z4k-16" value="" style="endArrow=none;html=1;rounded=0;entryX=0.28;entryY=0.975;entryDx=0;entryDy=0;exitX=0.5;exitY=0;exitDx=0;exitDy=0;entryPerimeter=0;" edge="1" parent="1" source="Cq4BFAkTLTm9UH8a_Z4k-2" target="Cq4BFAkTLTm9UH8a_Z4k-7">
          <mxGeometry width="50" height="50" relative="1" as="geometry">
            <mxPoint x="437.5" y="-2" as="sourcePoint" />
            <mxPoint x="389.5" y="-121" as="targetPoint" />
          </mxGeometry>
        </mxCell>
        <mxCell id="Cq4BFAkTLTm9UH8a_Z4k-17" value="" style="endArrow=none;html=1;rounded=0;entryX=0.08;entryY=0.875;entryDx=0;entryDy=0;entryPerimeter=0;exitX=0.69;exitY=-0.025;exitDx=0;exitDy=0;exitPerimeter=0;" edge="1" parent="1" source="Cq4BFAkTLTm9UH8a_Z4k-2" target="Cq4BFAkTLTm9UH8a_Z4k-8">
          <mxGeometry width="50" height="50" relative="1" as="geometry">
            <mxPoint x="430" y="-30" as="sourcePoint" />
            <mxPoint x="428" y="-111" as="targetPoint" />
          </mxGeometry>
        </mxCell>
        <mxCell id="Cq4BFAkTLTm9UH8a_Z4k-18" value="" style="endArrow=none;html=1;rounded=0;exitX=1;exitY=0;exitDx=0;exitDy=0;entryX=0.05;entryY=0.75;entryDx=0;entryDy=0;entryPerimeter=0;" edge="1" parent="1" source="Cq4BFAkTLTm9UH8a_Z4k-8" target="Cq4BFAkTLTm9UH8a_Z4k-9">
          <mxGeometry width="50" height="50" relative="1" as="geometry">
            <mxPoint x="520" y="-70" as="sourcePoint" />
            <mxPoint x="570" y="-134" as="targetPoint" />
          </mxGeometry>
        </mxCell>
        <mxCell id="Cq4BFAkTLTm9UH8a_Z4k-19" value="" style="endArrow=none;html=1;rounded=0;exitX=1;exitY=0.5;exitDx=0;exitDy=0;entryX=0;entryY=0.5;entryDx=0;entryDy=0;" edge="1" parent="1" source="Cq4BFAkTLTm9UH8a_Z4k-8" target="Cq4BFAkTLTm9UH8a_Z4k-10">
          <mxGeometry width="50" height="50" relative="1" as="geometry">
            <mxPoint x="545" y="-84" as="sourcePoint" />
            <mxPoint x="565" y="-120" as="targetPoint" />
          </mxGeometry>
        </mxCell>
        <mxCell id="Cq4BFAkTLTm9UH8a_Z4k-21" value="" style="endArrow=none;html=1;rounded=0;entryX=0;entryY=1;entryDx=0;entryDy=0;exitX=0.5;exitY=0;exitDx=0;exitDy=0;" edge="1" parent="1" source="Cq4BFAkTLTm9UH8a_Z4k-3" target="Cq4BFAkTLTm9UH8a_Z4k-11">
          <mxGeometry width="50" height="50" relative="1" as="geometry">
            <mxPoint x="720" as="sourcePoint" />
            <mxPoint x="780" y="-50" as="targetPoint" />
          </mxGeometry>
        </mxCell>
        <mxCell id="Cq4BFAkTLTm9UH8a_Z4k-22" value="" style="endArrow=none;html=1;rounded=0;entryX=0.03;entryY=0.725;entryDx=0;entryDy=0;exitX=0.91;exitY=0;exitDx=0;exitDy=0;entryPerimeter=0;exitPerimeter=0;" edge="1" parent="1" source="Cq4BFAkTLTm9UH8a_Z4k-3" target="Cq4BFAkTLTm9UH8a_Z4k-12">
          <mxGeometry width="50" height="50" relative="1" as="geometry">
            <mxPoint x="750" y="10" as="sourcePoint" />
            <mxPoint x="777" y="-36" as="targetPoint" />
          </mxGeometry>
        </mxCell>
        <mxCell id="Cq4BFAkTLTm9UH8a_Z4k-25" style="edgeStyle=orthogonalEdgeStyle;rounded=0;orthogonalLoop=1;jettySize=auto;html=1;exitX=1;exitY=0.5;exitDx=0;exitDy=0;entryX=0;entryY=0.5;entryDx=0;entryDy=0;endArrow=none;endFill=0;" edge="1" parent="1" source="Cq4BFAkTLTm9UH8a_Z4k-23" target="Cq4BFAkTLTm9UH8a_Z4k-3">
          <mxGeometry relative="1" as="geometry" />
        </mxCell>
        <mxCell id="Cq4BFAkTLTm9UH8a_Z4k-23" value="Posee" style="shape=rhombus;perimeter=rhombusPerimeter;whiteSpace=wrap;html=1;align=center;" vertex="1" parent="1">
          <mxGeometry x="530" width="80" height="40" as="geometry" />
        </mxCell>
        <mxCell id="Cq4BFAkTLTm9UH8a_Z4k-26" value="1" style="text;html=1;align=center;verticalAlign=middle;resizable=0;points=[];autosize=1;strokeColor=none;fillColor=none;" vertex="1" parent="1">
          <mxGeometry x="665" y="-12" width="30" height="30" as="geometry" />
        </mxCell>
        <mxCell id="Cq4BFAkTLTm9UH8a_Z4k-27" value="N" style="text;html=1;align=center;verticalAlign=middle;resizable=0;points=[];autosize=1;strokeColor=none;fillColor=none;" vertex="1" parent="1">
          <mxGeometry x="455" y="-12" width="30" height="30" as="geometry" />
        </mxCell>
        <mxCell id="Cq4BFAkTLTm9UH8a_Z4k-122" style="edgeStyle=orthogonalEdgeStyle;rounded=0;orthogonalLoop=1;jettySize=auto;html=1;exitX=1;exitY=0.5;exitDx=0;exitDy=0;entryX=0;entryY=0.5;entryDx=0;entryDy=0;endArrow=none;endFill=0;" edge="1" parent="1" source="Cq4BFAkTLTm9UH8a_Z4k-28" target="Cq4BFAkTLTm9UH8a_Z4k-121">
          <mxGeometry relative="1" as="geometry" />
        </mxCell>
        <mxCell id="Cq4BFAkTLTm9UH8a_Z4k-28" value="LLAMADA" style="whiteSpace=wrap;html=1;align=center;" vertex="1" parent="1">
          <mxGeometry x="350" y="220" width="100" height="40" as="geometry" />
        </mxCell>
        <mxCell id="Cq4BFAkTLTm9UH8a_Z4k-31" style="edgeStyle=orthogonalEdgeStyle;rounded=0;orthogonalLoop=1;jettySize=auto;html=1;exitX=0.5;exitY=1;exitDx=0;exitDy=0;entryX=0.5;entryY=0;entryDx=0;entryDy=0;endArrow=none;endFill=0;" edge="1" parent="1" source="Cq4BFAkTLTm9UH8a_Z4k-29" target="Cq4BFAkTLTm9UH8a_Z4k-28">
          <mxGeometry relative="1" as="geometry" />
        </mxCell>
        <mxCell id="Cq4BFAkTLTm9UH8a_Z4k-29" value="Realiza" style="shape=rhombus;perimeter=rhombusPerimeter;whiteSpace=wrap;html=1;align=center;" vertex="1" parent="1">
          <mxGeometry x="360" y="110" width="80" height="40" as="geometry" />
        </mxCell>
        <mxCell id="Cq4BFAkTLTm9UH8a_Z4k-32" value="1" style="text;html=1;align=center;verticalAlign=middle;resizable=0;points=[];autosize=1;strokeColor=none;fillColor=none;" vertex="1" parent="1">
          <mxGeometry x="399" y="40" width="30" height="30" as="geometry" />
        </mxCell>
        <mxCell id="Cq4BFAkTLTm9UH8a_Z4k-33" value="N" style="text;html=1;align=center;verticalAlign=middle;resizable=0;points=[];autosize=1;strokeColor=none;fillColor=none;" vertex="1" parent="1">
          <mxGeometry x="399" y="190" width="30" height="30" as="geometry" />
        </mxCell>
        <mxCell id="Cq4BFAkTLTm9UH8a_Z4k-35" style="edgeStyle=orthogonalEdgeStyle;rounded=0;orthogonalLoop=1;jettySize=auto;html=1;exitX=1;exitY=0.5;exitDx=0;exitDy=0;entryX=0;entryY=0.5;entryDx=0;entryDy=0;endArrow=none;endFill=0;" edge="1" parent="1" source="Cq4BFAkTLTm9UH8a_Z4k-34" target="Cq4BFAkTLTm9UH8a_Z4k-28">
          <mxGeometry relative="1" as="geometry" />
        </mxCell>
        <mxCell id="Cq4BFAkTLTm9UH8a_Z4k-34" value="nro" style="ellipse;whiteSpace=wrap;html=1;align=center;fontStyle=4;" vertex="1" parent="1">
          <mxGeometry x="210" y="220" width="70" height="40" as="geometry" />
        </mxCell>
        <mxCell id="Cq4BFAkTLTm9UH8a_Z4k-36" value="nroOrigen" style="ellipse;whiteSpace=wrap;html=1;align=center;" vertex="1" parent="1">
          <mxGeometry x="230" y="63" width="100" height="40" as="geometry" />
        </mxCell>
        <mxCell id="Cq4BFAkTLTm9UH8a_Z4k-37" value="fechaHora" style="ellipse;whiteSpace=wrap;html=1;align=center;" vertex="1" parent="1">
          <mxGeometry x="170" y="110" width="100" height="40" as="geometry" />
        </mxCell>
        <mxCell id="Cq4BFAkTLTm9UH8a_Z4k-38" value="lineaInterna" style="ellipse;whiteSpace=wrap;html=1;align=center;" vertex="1" parent="1">
          <mxGeometry x="260" y="150" width="100" height="40" as="geometry" />
        </mxCell>
        <mxCell id="Cq4BFAkTLTm9UH8a_Z4k-39" value="" style="endArrow=none;html=1;rounded=0;entryX=1;entryY=0.5;entryDx=0;entryDy=0;" edge="1" parent="1" source="Cq4BFAkTLTm9UH8a_Z4k-29" target="Cq4BFAkTLTm9UH8a_Z4k-36">
          <mxGeometry width="50" height="50" relative="1" as="geometry">
            <mxPoint x="360" y="134" as="sourcePoint" />
            <mxPoint x="399" y="70" as="targetPoint" />
          </mxGeometry>
        </mxCell>
        <mxCell id="Cq4BFAkTLTm9UH8a_Z4k-40" value="" style="endArrow=none;html=1;rounded=0;entryX=1;entryY=0.5;entryDx=0;entryDy=0;exitX=0;exitY=0.5;exitDx=0;exitDy=0;" edge="1" parent="1" source="Cq4BFAkTLTm9UH8a_Z4k-29">
          <mxGeometry width="50" height="50" relative="1" as="geometry">
            <mxPoint x="323" y="168" as="sourcePoint" />
            <mxPoint x="270" y="132" as="targetPoint" />
          </mxGeometry>
        </mxCell>
        <mxCell id="Cq4BFAkTLTm9UH8a_Z4k-41" value="" style="endArrow=none;html=1;rounded=0;entryX=1;entryY=0.5;entryDx=0;entryDy=0;exitX=0.35;exitY=0.9;exitDx=0;exitDy=0;exitPerimeter=0;" edge="1" parent="1" source="Cq4BFAkTLTm9UH8a_Z4k-29">
          <mxGeometry width="50" height="50" relative="1" as="geometry">
            <mxPoint x="450" y="168" as="sourcePoint" />
            <mxPoint x="360" y="170" as="targetPoint" />
          </mxGeometry>
        </mxCell>
        <mxCell id="Cq4BFAkTLTm9UH8a_Z4k-48" style="edgeStyle=orthogonalEdgeStyle;rounded=0;orthogonalLoop=1;jettySize=auto;html=1;exitX=0.5;exitY=0;exitDx=0;exitDy=0;entryX=0.5;entryY=1;entryDx=0;entryDy=0;" edge="1" parent="1" source="Cq4BFAkTLTm9UH8a_Z4k-42" target="Cq4BFAkTLTm9UH8a_Z4k-28">
          <mxGeometry relative="1" as="geometry" />
        </mxCell>
        <mxCell id="Cq4BFAkTLTm9UH8a_Z4k-42" value="&lt;u&gt;Tipo&lt;/u&gt;" style="shape=hexagon;perimeter=hexagonPerimeter2;whiteSpace=wrap;html=1;fixedSize=1;" vertex="1" parent="1">
          <mxGeometry x="360" y="330" width="80" height="40" as="geometry" />
        </mxCell>
        <mxCell id="Cq4BFAkTLTm9UH8a_Z4k-46" style="edgeStyle=orthogonalEdgeStyle;rounded=0;orthogonalLoop=1;jettySize=auto;html=1;exitX=0.5;exitY=0;exitDx=0;exitDy=0;entryX=0;entryY=0.5;entryDx=0;entryDy=0;" edge="1" parent="1" source="Cq4BFAkTLTm9UH8a_Z4k-44" target="Cq4BFAkTLTm9UH8a_Z4k-42">
          <mxGeometry relative="1" as="geometry" />
        </mxCell>
        <mxCell id="Cq4BFAkTLTm9UH8a_Z4k-80" style="edgeStyle=orthogonalEdgeStyle;rounded=0;orthogonalLoop=1;jettySize=auto;html=1;exitX=0.5;exitY=1;exitDx=0;exitDy=0;entryX=0.5;entryY=0;entryDx=0;entryDy=0;endArrow=none;endFill=0;" edge="1" parent="1" source="Cq4BFAkTLTm9UH8a_Z4k-44" target="Cq4BFAkTLTm9UH8a_Z4k-79">
          <mxGeometry relative="1" as="geometry" />
        </mxCell>
        <mxCell id="Cq4BFAkTLTm9UH8a_Z4k-44" value="COMPRA" style="rounded=0;whiteSpace=wrap;html=1;" vertex="1" parent="1">
          <mxGeometry x="230" y="470" width="100" height="40" as="geometry" />
        </mxCell>
        <mxCell id="Cq4BFAkTLTm9UH8a_Z4k-47" style="edgeStyle=orthogonalEdgeStyle;rounded=0;orthogonalLoop=1;jettySize=auto;html=1;exitX=0.5;exitY=0;exitDx=0;exitDy=0;entryX=1;entryY=0.5;entryDx=0;entryDy=0;" edge="1" parent="1" source="Cq4BFAkTLTm9UH8a_Z4k-45" target="Cq4BFAkTLTm9UH8a_Z4k-42">
          <mxGeometry relative="1" as="geometry" />
        </mxCell>
        <mxCell id="Cq4BFAkTLTm9UH8a_Z4k-138" style="edgeStyle=orthogonalEdgeStyle;rounded=0;orthogonalLoop=1;jettySize=auto;html=1;exitX=1;exitY=0.5;exitDx=0;exitDy=0;entryX=0;entryY=0.5;entryDx=0;entryDy=0;endArrow=none;endFill=0;" edge="1" parent="1" source="Cq4BFAkTLTm9UH8a_Z4k-45" target="Cq4BFAkTLTm9UH8a_Z4k-137">
          <mxGeometry relative="1" as="geometry" />
        </mxCell>
        <mxCell id="Cq4BFAkTLTm9UH8a_Z4k-45" value="RECLAMO" style="rounded=0;whiteSpace=wrap;html=1;" vertex="1" parent="1">
          <mxGeometry x="565" y="470" width="100" height="40" as="geometry" />
        </mxCell>
        <mxCell id="Cq4BFAkTLTm9UH8a_Z4k-50" value="ESTADO" style="whiteSpace=wrap;html=1;align=center;" vertex="1" parent="1">
          <mxGeometry x="450" y="680" width="100" height="40" as="geometry" />
        </mxCell>
        <mxCell id="Cq4BFAkTLTm9UH8a_Z4k-51" value="id" style="ellipse;whiteSpace=wrap;html=1;align=center;fontStyle=4;" vertex="1" parent="1">
          <mxGeometry x="405" y="760" width="70" height="40" as="geometry" />
        </mxCell>
        <mxCell id="Cq4BFAkTLTm9UH8a_Z4k-52" value="descripcion" style="ellipse;whiteSpace=wrap;html=1;align=center;" vertex="1" parent="1">
          <mxGeometry x="510" y="760" width="100" height="40" as="geometry" />
        </mxCell>
        <mxCell id="Cq4BFAkTLTm9UH8a_Z4k-53" value="" style="endArrow=none;html=1;rounded=0;entryX=0.38;entryY=1;entryDx=0;entryDy=0;entryPerimeter=0;exitX=0.729;exitY=-0.025;exitDx=0;exitDy=0;exitPerimeter=0;" edge="1" parent="1" source="Cq4BFAkTLTm9UH8a_Z4k-51" target="Cq4BFAkTLTm9UH8a_Z4k-50">
          <mxGeometry width="50" height="50" relative="1" as="geometry">
            <mxPoint x="470" y="770" as="sourcePoint" />
            <mxPoint x="520" y="720" as="targetPoint" />
          </mxGeometry>
        </mxCell>
        <mxCell id="Cq4BFAkTLTm9UH8a_Z4k-54" value="" style="endArrow=none;html=1;rounded=0;entryX=0.64;entryY=1.05;entryDx=0;entryDy=0;entryPerimeter=0;exitX=0.27;exitY=0.05;exitDx=0;exitDy=0;exitPerimeter=0;" edge="1" parent="1" source="Cq4BFAkTLTm9UH8a_Z4k-52" target="Cq4BFAkTLTm9UH8a_Z4k-50">
          <mxGeometry width="50" height="50" relative="1" as="geometry">
            <mxPoint x="466" y="769" as="sourcePoint" />
            <mxPoint x="498" y="730" as="targetPoint" />
          </mxGeometry>
        </mxCell>
        <mxCell id="Cq4BFAkTLTm9UH8a_Z4k-56" style="edgeStyle=orthogonalEdgeStyle;rounded=0;orthogonalLoop=1;jettySize=auto;html=1;exitX=0.5;exitY=1;exitDx=0;exitDy=0;entryX=0.5;entryY=0;entryDx=0;entryDy=0;endArrow=none;endFill=0;" edge="1" parent="1" source="Cq4BFAkTLTm9UH8a_Z4k-55" target="Cq4BFAkTLTm9UH8a_Z4k-50">
          <mxGeometry relative="1" as="geometry" />
        </mxCell>
        <mxCell id="Cq4BFAkTLTm9UH8a_Z4k-55" value="Tiene" style="shape=rhombus;perimeter=rhombusPerimeter;whiteSpace=wrap;html=1;align=center;" vertex="1" parent="1">
          <mxGeometry x="460" y="585" width="80" height="40" as="geometry" />
        </mxCell>
        <mxCell id="Cq4BFAkTLTm9UH8a_Z4k-57" style="edgeStyle=orthogonalEdgeStyle;rounded=0;orthogonalLoop=1;jettySize=auto;html=1;exitX=0.5;exitY=0;exitDx=0;exitDy=0;entryX=0.35;entryY=1.075;entryDx=0;entryDy=0;entryPerimeter=0;endArrow=none;endFill=0;" edge="1" parent="1" source="Cq4BFAkTLTm9UH8a_Z4k-55" target="Cq4BFAkTLTm9UH8a_Z4k-45">
          <mxGeometry relative="1" as="geometry" />
        </mxCell>
        <mxCell id="Cq4BFAkTLTm9UH8a_Z4k-58" value="COMENTARIO" style="shape=ext;margin=3;double=1;whiteSpace=wrap;html=1;align=center;" vertex="1" parent="1">
          <mxGeometry x="695" y="680" width="120" height="40" as="geometry" />
        </mxCell>
        <mxCell id="Cq4BFAkTLTm9UH8a_Z4k-61" style="edgeStyle=orthogonalEdgeStyle;rounded=0;orthogonalLoop=1;jettySize=auto;html=1;exitX=0.5;exitY=0;exitDx=0;exitDy=0;entryX=0.75;entryY=1;entryDx=0;entryDy=0;endArrow=none;endFill=0;" edge="1" parent="1" source="Cq4BFAkTLTm9UH8a_Z4k-60" target="Cq4BFAkTLTm9UH8a_Z4k-45">
          <mxGeometry relative="1" as="geometry" />
        </mxCell>
        <mxCell id="Cq4BFAkTLTm9UH8a_Z4k-62" style="edgeStyle=orthogonalEdgeStyle;rounded=0;orthogonalLoop=1;jettySize=auto;html=1;exitX=0.5;exitY=1;exitDx=0;exitDy=0;entryX=0.5;entryY=0;entryDx=0;entryDy=0;endArrow=none;endFill=0;" edge="1" parent="1" source="Cq4BFAkTLTm9UH8a_Z4k-60" target="Cq4BFAkTLTm9UH8a_Z4k-58">
          <mxGeometry relative="1" as="geometry" />
        </mxCell>
        <mxCell id="Cq4BFAkTLTm9UH8a_Z4k-60" value="Incluye" style="shape=rhombus;double=1;perimeter=rhombusPerimeter;whiteSpace=wrap;html=1;align=center;" vertex="1" parent="1">
          <mxGeometry x="708.5" y="590" width="93" height="45" as="geometry" />
        </mxCell>
        <mxCell id="Cq4BFAkTLTm9UH8a_Z4k-63" value="&lt;span style=&quot;border-bottom: 1px dotted&quot;&gt;nro&lt;/span&gt;" style="ellipse;whiteSpace=wrap;html=1;align=center;" vertex="1" parent="1">
          <mxGeometry x="670" y="760" width="70" height="40" as="geometry" />
        </mxCell>
        <mxCell id="Cq4BFAkTLTm9UH8a_Z4k-64" value="descripcion" style="ellipse;whiteSpace=wrap;html=1;align=center;" vertex="1" parent="1">
          <mxGeometry x="770" y="760" width="100" height="40" as="geometry" />
        </mxCell>
        <mxCell id="Cq4BFAkTLTm9UH8a_Z4k-65" value="" style="endArrow=none;html=1;rounded=0;entryX=0.325;entryY=1.05;entryDx=0;entryDy=0;entryPerimeter=0;exitX=0.5;exitY=0;exitDx=0;exitDy=0;" edge="1" parent="1" source="Cq4BFAkTLTm9UH8a_Z4k-63" target="Cq4BFAkTLTm9UH8a_Z4k-58">
          <mxGeometry width="50" height="50" relative="1" as="geometry">
            <mxPoint x="466" y="769" as="sourcePoint" />
            <mxPoint x="498" y="730" as="targetPoint" />
          </mxGeometry>
        </mxCell>
        <mxCell id="Cq4BFAkTLTm9UH8a_Z4k-66" value="" style="endArrow=none;html=1;rounded=0;entryX=0.65;entryY=1.075;entryDx=0;entryDy=0;entryPerimeter=0;exitX=0.33;exitY=0.1;exitDx=0;exitDy=0;exitPerimeter=0;" edge="1" parent="1" source="Cq4BFAkTLTm9UH8a_Z4k-64" target="Cq4BFAkTLTm9UH8a_Z4k-58">
          <mxGeometry width="50" height="50" relative="1" as="geometry">
            <mxPoint x="715" y="770" as="sourcePoint" />
            <mxPoint x="744" y="732" as="targetPoint" />
          </mxGeometry>
        </mxCell>
        <mxCell id="Cq4BFAkTLTm9UH8a_Z4k-67" value="1" style="text;html=1;align=center;verticalAlign=middle;resizable=0;points=[];autosize=1;strokeColor=none;fillColor=none;" vertex="1" parent="1">
          <mxGeometry x="500" y="650" width="30" height="30" as="geometry" />
        </mxCell>
        <mxCell id="Cq4BFAkTLTm9UH8a_Z4k-68" value="N" style="text;html=1;align=center;verticalAlign=middle;resizable=0;points=[];autosize=1;strokeColor=none;fillColor=none;" vertex="1" parent="1">
          <mxGeometry x="575" y="510" width="30" height="30" as="geometry" />
        </mxCell>
        <mxCell id="Cq4BFAkTLTm9UH8a_Z4k-69" value="N" style="text;html=1;align=center;verticalAlign=middle;resizable=0;points=[];autosize=1;strokeColor=none;fillColor=none;" vertex="1" parent="1">
          <mxGeometry x="757" y="650" width="30" height="30" as="geometry" />
        </mxCell>
        <mxCell id="Cq4BFAkTLTm9UH8a_Z4k-70" value="1" style="text;html=1;align=center;verticalAlign=middle;resizable=0;points=[];autosize=1;strokeColor=none;fillColor=none;" vertex="1" parent="1">
          <mxGeometry x="640" y="510" width="30" height="30" as="geometry" />
        </mxCell>
        <mxCell id="Cq4BFAkTLTm9UH8a_Z4k-71" value="fecha" style="ellipse;whiteSpace=wrap;html=1;align=center;" vertex="1" parent="1">
          <mxGeometry x="110" y="410" width="70" height="40" as="geometry" />
        </mxCell>
        <mxCell id="Cq4BFAkTLTm9UH8a_Z4k-72" value="medioPago" style="ellipse;whiteSpace=wrap;html=1;align=center;" vertex="1" parent="1">
          <mxGeometry x="50" y="460" width="100" height="40" as="geometry" />
        </mxCell>
        <mxCell id="Cq4BFAkTLTm9UH8a_Z4k-73" value="receptor" style="ellipse;whiteSpace=wrap;html=1;align=center;" vertex="1" parent="1">
          <mxGeometry x="70" y="520" width="80" height="40" as="geometry" />
        </mxCell>
        <mxCell id="Cq4BFAkTLTm9UH8a_Z4k-74" value="" style="endArrow=none;html=1;rounded=0;entryX=1;entryY=0.75;entryDx=0;entryDy=0;entryPerimeter=0;exitX=0;exitY=0.25;exitDx=0;exitDy=0;" edge="1" parent="1" source="Cq4BFAkTLTm9UH8a_Z4k-44" target="Cq4BFAkTLTm9UH8a_Z4k-71">
          <mxGeometry width="50" height="50" relative="1" as="geometry">
            <mxPoint x="547" y="772" as="sourcePoint" />
            <mxPoint x="524" y="732" as="targetPoint" />
          </mxGeometry>
        </mxCell>
        <mxCell id="Cq4BFAkTLTm9UH8a_Z4k-76" value="" style="endArrow=none;html=1;rounded=0;entryX=1;entryY=0.5;entryDx=0;entryDy=0;exitX=0;exitY=0.5;exitDx=0;exitDy=0;" edge="1" parent="1" source="Cq4BFAkTLTm9UH8a_Z4k-44" target="Cq4BFAkTLTm9UH8a_Z4k-72">
          <mxGeometry width="50" height="50" relative="1" as="geometry">
            <mxPoint x="240" y="490" as="sourcePoint" />
            <mxPoint x="190" y="450" as="targetPoint" />
          </mxGeometry>
        </mxCell>
        <mxCell id="Cq4BFAkTLTm9UH8a_Z4k-77" value="" style="endArrow=none;html=1;rounded=0;entryX=0.963;entryY=0.275;entryDx=0;entryDy=0;entryPerimeter=0;exitX=0;exitY=0.75;exitDx=0;exitDy=0;" edge="1" parent="1" source="Cq4BFAkTLTm9UH8a_Z4k-44" target="Cq4BFAkTLTm9UH8a_Z4k-73">
          <mxGeometry width="50" height="50" relative="1" as="geometry">
            <mxPoint x="230" y="500" as="sourcePoint" />
            <mxPoint x="160" y="490" as="targetPoint" />
          </mxGeometry>
        </mxCell>
        <mxCell id="Cq4BFAkTLTm9UH8a_Z4k-88" style="edgeStyle=orthogonalEdgeStyle;rounded=0;orthogonalLoop=1;jettySize=auto;html=1;exitX=0.5;exitY=1;exitDx=0;exitDy=0;entryX=0.5;entryY=0;entryDx=0;entryDy=0;endArrow=none;endFill=0;" edge="1" parent="1" source="Cq4BFAkTLTm9UH8a_Z4k-78" target="Cq4BFAkTLTm9UH8a_Z4k-87">
          <mxGeometry relative="1" as="geometry" />
        </mxCell>
        <mxCell id="Cq4BFAkTLTm9UH8a_Z4k-78" value="FACTURA" style="rounded=0;whiteSpace=wrap;html=1;" vertex="1" parent="1">
          <mxGeometry x="230" y="690" width="100" height="40" as="geometry" />
        </mxCell>
        <mxCell id="Cq4BFAkTLTm9UH8a_Z4k-81" style="edgeStyle=orthogonalEdgeStyle;rounded=0;orthogonalLoop=1;jettySize=auto;html=1;exitX=0.5;exitY=1;exitDx=0;exitDy=0;entryX=0.5;entryY=0;entryDx=0;entryDy=0;endArrow=none;endFill=0;" edge="1" parent="1" source="Cq4BFAkTLTm9UH8a_Z4k-79" target="Cq4BFAkTLTm9UH8a_Z4k-78">
          <mxGeometry relative="1" as="geometry" />
        </mxCell>
        <mxCell id="Cq4BFAkTLTm9UH8a_Z4k-79" value="Genera" style="shape=rhombus;perimeter=rhombusPerimeter;whiteSpace=wrap;html=1;align=center;" vertex="1" parent="1">
          <mxGeometry x="240" y="584.5" width="80" height="40" as="geometry" />
        </mxCell>
        <mxCell id="Cq4BFAkTLTm9UH8a_Z4k-82" value="1" style="text;html=1;align=center;verticalAlign=middle;resizable=0;points=[];autosize=1;strokeColor=none;fillColor=none;" vertex="1" parent="1">
          <mxGeometry x="275" y="508" width="30" height="30" as="geometry" />
        </mxCell>
        <mxCell id="Cq4BFAkTLTm9UH8a_Z4k-83" value="1" style="text;html=1;align=center;verticalAlign=middle;resizable=0;points=[];autosize=1;strokeColor=none;fillColor=none;" vertex="1" parent="1">
          <mxGeometry x="280" y="660" width="30" height="30" as="geometry" />
        </mxCell>
        <mxCell id="Cq4BFAkTLTm9UH8a_Z4k-84" value="nro" style="ellipse;whiteSpace=wrap;html=1;align=center;fontStyle=4;" vertex="1" parent="1">
          <mxGeometry x="100" y="700" width="70" height="40" as="geometry" />
        </mxCell>
        <mxCell id="Cq4BFAkTLTm9UH8a_Z4k-85" value="" style="endArrow=none;html=1;rounded=0;entryX=0;entryY=0.5;entryDx=0;entryDy=0;exitX=1;exitY=0.5;exitDx=0;exitDy=0;" edge="1" parent="1" source="Cq4BFAkTLTm9UH8a_Z4k-84" target="Cq4BFAkTLTm9UH8a_Z4k-78">
          <mxGeometry width="50" height="50" relative="1" as="geometry">
            <mxPoint x="130" y="740" as="sourcePoint" />
            <mxPoint x="180" y="690" as="targetPoint" />
          </mxGeometry>
        </mxCell>
        <mxCell id="Cq4BFAkTLTm9UH8a_Z4k-104" style="edgeStyle=orthogonalEdgeStyle;rounded=0;orthogonalLoop=1;jettySize=auto;html=1;exitX=1;exitY=0.5;exitDx=0;exitDy=0;entryX=0;entryY=0.5;entryDx=0;entryDy=0;endArrow=none;endFill=0;" edge="1" parent="1" source="Cq4BFAkTLTm9UH8a_Z4k-86" target="Cq4BFAkTLTm9UH8a_Z4k-103">
          <mxGeometry relative="1" as="geometry" />
        </mxCell>
        <mxCell id="Cq4BFAkTLTm9UH8a_Z4k-86" value="ITEM" style="shape=ext;margin=3;double=1;whiteSpace=wrap;html=1;align=center;" vertex="1" parent="1">
          <mxGeometry x="230" y="890" width="100" height="40" as="geometry" />
        </mxCell>
        <mxCell id="Cq4BFAkTLTm9UH8a_Z4k-89" style="edgeStyle=orthogonalEdgeStyle;rounded=0;orthogonalLoop=1;jettySize=auto;html=1;exitX=0.5;exitY=1;exitDx=0;exitDy=0;entryX=0.5;entryY=0;entryDx=0;entryDy=0;endArrow=none;endFill=0;" edge="1" parent="1" source="Cq4BFAkTLTm9UH8a_Z4k-87" target="Cq4BFAkTLTm9UH8a_Z4k-86">
          <mxGeometry relative="1" as="geometry" />
        </mxCell>
        <mxCell id="Cq4BFAkTLTm9UH8a_Z4k-87" value="Cuenta con" style="shape=rhombus;double=1;perimeter=rhombusPerimeter;whiteSpace=wrap;html=1;align=center;" vertex="1" parent="1">
          <mxGeometry x="235" y="790" width="90" height="50" as="geometry" />
        </mxCell>
        <mxCell id="Cq4BFAkTLTm9UH8a_Z4k-91" value="&lt;span style=&quot;border-bottom: 1px dotted&quot;&gt;nro&lt;/span&gt;" style="ellipse;whiteSpace=wrap;html=1;align=center;" vertex="1" parent="1">
          <mxGeometry x="180" y="980" width="65" height="40" as="geometry" />
        </mxCell>
        <mxCell id="Cq4BFAkTLTm9UH8a_Z4k-92" value="cantidad" style="ellipse;whiteSpace=wrap;html=1;align=center;" vertex="1" parent="1">
          <mxGeometry x="275" y="980" width="100" height="40" as="geometry" />
        </mxCell>
        <mxCell id="Cq4BFAkTLTm9UH8a_Z4k-94" value="" style="endArrow=none;html=1;rounded=0;entryX=0.25;entryY=1;entryDx=0;entryDy=0;exitX=0.5;exitY=0;exitDx=0;exitDy=0;" edge="1" parent="1" source="Cq4BFAkTLTm9UH8a_Z4k-91" target="Cq4BFAkTLTm9UH8a_Z4k-86">
          <mxGeometry width="50" height="50" relative="1" as="geometry">
            <mxPoint x="180" y="730" as="sourcePoint" />
            <mxPoint x="240" y="720" as="targetPoint" />
          </mxGeometry>
        </mxCell>
        <mxCell id="Cq4BFAkTLTm9UH8a_Z4k-95" value="" style="endArrow=none;html=1;rounded=0;entryX=0.59;entryY=1.075;entryDx=0;entryDy=0;exitX=0.31;exitY=0.05;exitDx=0;exitDy=0;exitPerimeter=0;entryPerimeter=0;" edge="1" parent="1" source="Cq4BFAkTLTm9UH8a_Z4k-92" target="Cq4BFAkTLTm9UH8a_Z4k-86">
          <mxGeometry width="50" height="50" relative="1" as="geometry">
            <mxPoint x="223" y="990" as="sourcePoint" />
            <mxPoint x="265" y="940" as="targetPoint" />
          </mxGeometry>
        </mxCell>
        <mxCell id="Cq4BFAkTLTm9UH8a_Z4k-96" value="1" style="text;html=1;align=center;verticalAlign=middle;resizable=0;points=[];autosize=1;strokeColor=none;fillColor=none;" vertex="1" parent="1">
          <mxGeometry x="280" y="730" width="30" height="30" as="geometry" />
        </mxCell>
        <mxCell id="Cq4BFAkTLTm9UH8a_Z4k-97" value="N" style="text;html=1;align=center;verticalAlign=middle;resizable=0;points=[];autosize=1;strokeColor=none;fillColor=none;" vertex="1" parent="1">
          <mxGeometry x="280" y="860" width="30" height="30" as="geometry" />
        </mxCell>
        <mxCell id="Cq4BFAkTLTm9UH8a_Z4k-98" value="PRODUCTO" style="whiteSpace=wrap;html=1;align=center;" vertex="1" parent="1">
          <mxGeometry x="595" y="890" width="100" height="40" as="geometry" />
        </mxCell>
        <mxCell id="Cq4BFAkTLTm9UH8a_Z4k-99" value="id" style="ellipse;whiteSpace=wrap;html=1;align=center;fontStyle=4;" vertex="1" parent="1">
          <mxGeometry x="560" y="980" width="60" height="40" as="geometry" />
        </mxCell>
        <mxCell id="Cq4BFAkTLTm9UH8a_Z4k-100" value="descripcion" style="ellipse;whiteSpace=wrap;html=1;align=center;" vertex="1" parent="1">
          <mxGeometry x="665" y="980" width="100" height="40" as="geometry" />
        </mxCell>
        <mxCell id="Cq4BFAkTLTm9UH8a_Z4k-101" value="" style="endArrow=none;html=1;rounded=0;entryX=0.25;entryY=1;entryDx=0;entryDy=0;exitX=0.5;exitY=0;exitDx=0;exitDy=0;" edge="1" parent="1" source="Cq4BFAkTLTm9UH8a_Z4k-99" target="Cq4BFAkTLTm9UH8a_Z4k-98">
          <mxGeometry width="50" height="50" relative="1" as="geometry">
            <mxPoint x="223" y="990" as="sourcePoint" />
            <mxPoint x="265" y="940" as="targetPoint" />
          </mxGeometry>
        </mxCell>
        <mxCell id="Cq4BFAkTLTm9UH8a_Z4k-102" value="" style="endArrow=none;html=1;rounded=0;entryX=0.63;entryY=1.025;entryDx=0;entryDy=0;exitX=0.34;exitY=0.05;exitDx=0;exitDy=0;entryPerimeter=0;exitPerimeter=0;" edge="1" parent="1" source="Cq4BFAkTLTm9UH8a_Z4k-100" target="Cq4BFAkTLTm9UH8a_Z4k-98">
          <mxGeometry width="50" height="50" relative="1" as="geometry">
            <mxPoint x="600" y="990" as="sourcePoint" />
            <mxPoint x="630" y="940" as="targetPoint" />
          </mxGeometry>
        </mxCell>
        <mxCell id="Cq4BFAkTLTm9UH8a_Z4k-105" style="edgeStyle=orthogonalEdgeStyle;rounded=0;orthogonalLoop=1;jettySize=auto;html=1;exitX=1;exitY=0.5;exitDx=0;exitDy=0;entryX=0;entryY=0.5;entryDx=0;entryDy=0;endArrow=none;endFill=0;" edge="1" parent="1" source="Cq4BFAkTLTm9UH8a_Z4k-103" target="Cq4BFAkTLTm9UH8a_Z4k-98">
          <mxGeometry relative="1" as="geometry" />
        </mxCell>
        <mxCell id="Cq4BFAkTLTm9UH8a_Z4k-103" value="Corresponde a" style="shape=rhombus;perimeter=rhombusPerimeter;whiteSpace=wrap;html=1;align=center;" vertex="1" parent="1">
          <mxGeometry x="429" y="890" width="70" height="40" as="geometry" />
        </mxCell>
        <mxCell id="Cq4BFAkTLTm9UH8a_Z4k-106" value="1" style="text;html=1;align=center;verticalAlign=middle;resizable=0;points=[];autosize=1;strokeColor=none;fillColor=none;" vertex="1" parent="1">
          <mxGeometry x="565" y="880" width="30" height="30" as="geometry" />
        </mxCell>
        <mxCell id="Cq4BFAkTLTm9UH8a_Z4k-107" value="1" style="text;html=1;align=center;verticalAlign=middle;resizable=0;points=[];autosize=1;strokeColor=none;fillColor=none;" vertex="1" parent="1">
          <mxGeometry x="330" y="880" width="30" height="30" as="geometry" />
        </mxCell>
        <mxCell id="Cq4BFAkTLTm9UH8a_Z4k-108" value="OPERADOR" style="whiteSpace=wrap;html=1;align=center;" vertex="1" parent="1">
          <mxGeometry x="1090" y="220" width="100" height="40" as="geometry" />
        </mxCell>
        <mxCell id="Cq4BFAkTLTm9UH8a_Z4k-115" style="edgeStyle=orthogonalEdgeStyle;rounded=0;orthogonalLoop=1;jettySize=auto;html=1;exitX=0.5;exitY=0;exitDx=0;exitDy=0;entryX=0.5;entryY=1;entryDx=0;entryDy=0;" edge="1" parent="1" source="Cq4BFAkTLTm9UH8a_Z4k-109" target="Cq4BFAkTLTm9UH8a_Z4k-108">
          <mxGeometry relative="1" as="geometry" />
        </mxCell>
        <mxCell id="Cq4BFAkTLTm9UH8a_Z4k-109" value="&lt;u&gt;Tipo&lt;/u&gt;" style="shape=hexagon;perimeter=hexagonPerimeter2;whiteSpace=wrap;html=1;fixedSize=1;" vertex="1" parent="1">
          <mxGeometry x="1100" y="360" width="80" height="40" as="geometry" />
        </mxCell>
        <mxCell id="Cq4BFAkTLTm9UH8a_Z4k-110" value="id" style="ellipse;whiteSpace=wrap;html=1;align=center;fontStyle=4;" vertex="1" parent="1">
          <mxGeometry x="990" y="103" width="70" height="40" as="geometry" />
        </mxCell>
        <mxCell id="Cq4BFAkTLTm9UH8a_Z4k-111" value="fechaIngreso" style="ellipse;whiteSpace=wrap;html=1;align=center;" vertex="1" parent="1">
          <mxGeometry x="960" y="270" width="100" height="40" as="geometry" />
        </mxCell>
        <mxCell id="Cq4BFAkTLTm9UH8a_Z4k-112" value="&lt;u&gt;nroDoc&lt;/u&gt;" style="ellipse;whiteSpace=wrap;html=1;align=center;" vertex="1" parent="1">
          <mxGeometry x="960" y="160" width="100" height="40" as="geometry" />
        </mxCell>
        <mxCell id="Cq4BFAkTLTm9UH8a_Z4k-113" value="nombre" style="ellipse;whiteSpace=wrap;html=1;align=center;" vertex="1" parent="1">
          <mxGeometry x="1210" y="140" width="100" height="40" as="geometry" />
        </mxCell>
        <mxCell id="Cq4BFAkTLTm9UH8a_Z4k-114" value="apellido" style="ellipse;whiteSpace=wrap;html=1;align=center;" vertex="1" parent="1">
          <mxGeometry x="1230" y="210" width="100" height="40" as="geometry" />
        </mxCell>
        <mxCell id="Cq4BFAkTLTm9UH8a_Z4k-118" style="edgeStyle=orthogonalEdgeStyle;rounded=0;orthogonalLoop=1;jettySize=auto;html=1;exitX=0.5;exitY=1;exitDx=0;exitDy=0;entryX=0.5;entryY=0;entryDx=0;entryDy=0;endArrow=none;endFill=0;" edge="1" parent="1" source="Cq4BFAkTLTm9UH8a_Z4k-116" target="Cq4BFAkTLTm9UH8a_Z4k-108">
          <mxGeometry relative="1" as="geometry" />
        </mxCell>
        <mxCell id="Cq4BFAkTLTm9UH8a_Z4k-116" value="Forma parte de" style="shape=rhombus;perimeter=rhombusPerimeter;whiteSpace=wrap;html=1;align=center;" vertex="1" parent="1">
          <mxGeometry x="1100" y="103" width="80" height="40" as="geometry" />
        </mxCell>
        <mxCell id="Cq4BFAkTLTm9UH8a_Z4k-119" value="N" style="text;html=1;align=center;verticalAlign=middle;resizable=0;points=[];autosize=1;strokeColor=none;fillColor=none;" vertex="1" parent="1">
          <mxGeometry x="1135" y="188" width="30" height="30" as="geometry" />
        </mxCell>
        <mxCell id="Cq4BFAkTLTm9UH8a_Z4k-120" value="1" style="text;html=1;align=center;verticalAlign=middle;resizable=0;points=[];autosize=1;strokeColor=none;fillColor=none;" vertex="1" parent="1">
          <mxGeometry x="787" y="-10" width="30" height="30" as="geometry" />
        </mxCell>
        <mxCell id="Cq4BFAkTLTm9UH8a_Z4k-123" style="edgeStyle=orthogonalEdgeStyle;rounded=0;orthogonalLoop=1;jettySize=auto;html=1;exitX=1;exitY=0.5;exitDx=0;exitDy=0;entryX=0;entryY=0.5;entryDx=0;entryDy=0;endArrow=none;endFill=0;" edge="1" parent="1" source="Cq4BFAkTLTm9UH8a_Z4k-121" target="Cq4BFAkTLTm9UH8a_Z4k-108">
          <mxGeometry relative="1" as="geometry" />
        </mxCell>
        <mxCell id="Cq4BFAkTLTm9UH8a_Z4k-121" value="Atendida por" style="shape=rhombus;perimeter=rhombusPerimeter;whiteSpace=wrap;html=1;align=center;" vertex="1" parent="1">
          <mxGeometry x="700" y="220" width="112" height="40" as="geometry" />
        </mxCell>
        <mxCell id="Cq4BFAkTLTm9UH8a_Z4k-125" value="1" style="text;html=1;align=center;verticalAlign=middle;resizable=0;points=[];autosize=1;strokeColor=none;fillColor=none;" vertex="1" parent="1">
          <mxGeometry x="1060" y="210" width="30" height="30" as="geometry" />
        </mxCell>
        <mxCell id="Cq4BFAkTLTm9UH8a_Z4k-126" value="N" style="text;html=1;align=center;verticalAlign=middle;resizable=0;points=[];autosize=1;strokeColor=none;fillColor=none;" vertex="1" parent="1">
          <mxGeometry x="449" y="210" width="30" height="30" as="geometry" />
        </mxCell>
        <mxCell id="Cq4BFAkTLTm9UH8a_Z4k-127" value="" style="endArrow=none;html=1;rounded=0;entryX=1;entryY=0.5;entryDx=0;entryDy=0;exitX=0.18;exitY=0.05;exitDx=0;exitDy=0;exitPerimeter=0;" edge="1" parent="1" source="Cq4BFAkTLTm9UH8a_Z4k-108" target="Cq4BFAkTLTm9UH8a_Z4k-112">
          <mxGeometry width="50" height="50" relative="1" as="geometry">
            <mxPoint x="1100" y="218" as="sourcePoint" />
            <mxPoint x="1127" y="172" as="targetPoint" />
          </mxGeometry>
        </mxCell>
        <mxCell id="Cq4BFAkTLTm9UH8a_Z4k-129" value="" style="endArrow=none;html=1;rounded=0;entryX=0.986;entryY=0.675;entryDx=0;entryDy=0;exitX=0.25;exitY=0;exitDx=0;exitDy=0;entryPerimeter=0;" edge="1" parent="1" source="Cq4BFAkTLTm9UH8a_Z4k-108" target="Cq4BFAkTLTm9UH8a_Z4k-110">
          <mxGeometry width="50" height="50" relative="1" as="geometry">
            <mxPoint x="1118" y="232" as="sourcePoint" />
            <mxPoint x="1070" y="190" as="targetPoint" />
          </mxGeometry>
        </mxCell>
        <mxCell id="Cq4BFAkTLTm9UH8a_Z4k-130" value="" style="endArrow=none;html=1;rounded=0;entryX=0.03;entryY=0.775;entryDx=0;entryDy=0;exitX=0.75;exitY=0;exitDx=0;exitDy=0;entryPerimeter=0;" edge="1" parent="1" source="Cq4BFAkTLTm9UH8a_Z4k-108" target="Cq4BFAkTLTm9UH8a_Z4k-113">
          <mxGeometry width="50" height="50" relative="1" as="geometry">
            <mxPoint x="1125" y="230" as="sourcePoint" />
            <mxPoint x="1070" y="150" as="targetPoint" />
          </mxGeometry>
        </mxCell>
        <mxCell id="Cq4BFAkTLTm9UH8a_Z4k-131" value="" style="endArrow=none;html=1;rounded=0;entryX=0;entryY=0.5;entryDx=0;entryDy=0;exitX=1;exitY=0.5;exitDx=0;exitDy=0;" edge="1" parent="1" source="Cq4BFAkTLTm9UH8a_Z4k-108" target="Cq4BFAkTLTm9UH8a_Z4k-114">
          <mxGeometry width="50" height="50" relative="1" as="geometry">
            <mxPoint x="1175" y="230" as="sourcePoint" />
            <mxPoint x="1223" y="181" as="targetPoint" />
          </mxGeometry>
        </mxCell>
        <mxCell id="Cq4BFAkTLTm9UH8a_Z4k-132" value="" style="endArrow=none;html=1;rounded=0;entryX=0.1;entryY=1.05;entryDx=0;entryDy=0;exitX=0.96;exitY=0.3;exitDx=0;exitDy=0;exitPerimeter=0;entryPerimeter=0;" edge="1" parent="1" source="Cq4BFAkTLTm9UH8a_Z4k-111" target="Cq4BFAkTLTm9UH8a_Z4k-108">
          <mxGeometry width="50" height="50" relative="1" as="geometry">
            <mxPoint x="1200" y="250" as="sourcePoint" />
            <mxPoint x="1240" y="240" as="targetPoint" />
          </mxGeometry>
        </mxCell>
        <mxCell id="Cq4BFAkTLTm9UH8a_Z4k-134" style="edgeStyle=orthogonalEdgeStyle;rounded=0;orthogonalLoop=1;jettySize=auto;html=1;exitX=0.5;exitY=0;exitDx=0;exitDy=0;entryX=0;entryY=0.5;entryDx=0;entryDy=0;" edge="1" parent="1" source="Cq4BFAkTLTm9UH8a_Z4k-133" target="Cq4BFAkTLTm9UH8a_Z4k-109">
          <mxGeometry relative="1" as="geometry" />
        </mxCell>
        <mxCell id="Cq4BFAkTLTm9UH8a_Z4k-133" value="SENIOR" style="whiteSpace=wrap;html=1;align=center;" vertex="1" parent="1">
          <mxGeometry x="990" y="470" width="100" height="40" as="geometry" />
        </mxCell>
        <mxCell id="Cq4BFAkTLTm9UH8a_Z4k-136" style="edgeStyle=orthogonalEdgeStyle;rounded=0;orthogonalLoop=1;jettySize=auto;html=1;exitX=0.5;exitY=0;exitDx=0;exitDy=0;entryX=1;entryY=0.5;entryDx=0;entryDy=0;" edge="1" parent="1" source="Cq4BFAkTLTm9UH8a_Z4k-135" target="Cq4BFAkTLTm9UH8a_Z4k-109">
          <mxGeometry relative="1" as="geometry" />
        </mxCell>
        <mxCell id="Cq4BFAkTLTm9UH8a_Z4k-135" value="JUNIOR" style="whiteSpace=wrap;html=1;align=center;" vertex="1" parent="1">
          <mxGeometry x="1200" y="470" width="100" height="40" as="geometry" />
        </mxCell>
        <mxCell id="Cq4BFAkTLTm9UH8a_Z4k-139" style="edgeStyle=orthogonalEdgeStyle;rounded=0;orthogonalLoop=1;jettySize=auto;html=1;exitX=1;exitY=0.5;exitDx=0;exitDy=0;entryX=0;entryY=0.5;entryDx=0;entryDy=0;endArrow=none;endFill=0;" edge="1" parent="1" source="Cq4BFAkTLTm9UH8a_Z4k-137" target="Cq4BFAkTLTm9UH8a_Z4k-133">
          <mxGeometry relative="1" as="geometry" />
        </mxCell>
        <mxCell id="Cq4BFAkTLTm9UH8a_Z4k-137" value="Se deriva a" style="shape=rhombus;perimeter=rhombusPerimeter;whiteSpace=wrap;html=1;align=center;" vertex="1" parent="1">
          <mxGeometry x="787" y="465" width="90" height="50" as="geometry" />
        </mxCell>
        <mxCell id="Cq4BFAkTLTm9UH8a_Z4k-140" value="1" style="text;html=1;align=center;verticalAlign=middle;resizable=0;points=[];autosize=1;strokeColor=none;fillColor=none;" vertex="1" parent="1">
          <mxGeometry x="965" y="458" width="30" height="30" as="geometry" />
        </mxCell>
        <mxCell id="Cq4BFAkTLTm9UH8a_Z4k-141" value="N" style="text;html=1;align=center;verticalAlign=middle;resizable=0;points=[];autosize=1;strokeColor=none;fillColor=none;" vertex="1" parent="1">
          <mxGeometry x="665" y="458" width="30" height="30" as="geometry" />
        </mxCell>
        <mxCell id="Cq4BFAkTLTm9UH8a_Z4k-143" style="edgeStyle=orthogonalEdgeStyle;rounded=0;orthogonalLoop=1;jettySize=auto;html=1;exitX=0;exitY=0.5;exitDx=0;exitDy=0;entryX=0.75;entryY=1;entryDx=0;entryDy=0;endArrow=none;endFill=0;" edge="1" parent="1" source="Cq4BFAkTLTm9UH8a_Z4k-142" target="Cq4BFAkTLTm9UH8a_Z4k-108">
          <mxGeometry relative="1" as="geometry" />
        </mxCell>
        <mxCell id="Cq4BFAkTLTm9UH8a_Z4k-144" style="edgeStyle=orthogonalEdgeStyle;rounded=0;orthogonalLoop=1;jettySize=auto;html=1;exitX=0.5;exitY=0;exitDx=0;exitDy=0;entryX=1;entryY=0.75;entryDx=0;entryDy=0;endArrow=none;endFill=0;" edge="1" parent="1" source="Cq4BFAkTLTm9UH8a_Z4k-142" target="Cq4BFAkTLTm9UH8a_Z4k-108">
          <mxGeometry relative="1" as="geometry" />
        </mxCell>
        <mxCell id="Cq4BFAkTLTm9UH8a_Z4k-142" value="Coordina" style="shape=rhombus;perimeter=rhombusPerimeter;whiteSpace=wrap;html=1;align=center;" vertex="1" parent="1">
          <mxGeometry x="1210" y="290" width="70" height="40" as="geometry" />
        </mxCell>
        <mxCell id="Cq4BFAkTLTm9UH8a_Z4k-145" value="N" style="text;html=1;align=center;verticalAlign=middle;resizable=0;points=[];autosize=1;strokeColor=none;fillColor=none;" vertex="1" parent="1">
          <mxGeometry x="1135" y="260" width="30" height="30" as="geometry" />
        </mxCell>
        <mxCell id="Cq4BFAkTLTm9UH8a_Z4k-146" value="1" style="text;html=1;align=center;verticalAlign=middle;resizable=0;points=[];autosize=1;strokeColor=none;fillColor=none;" vertex="1" parent="1">
          <mxGeometry x="1190" y="250" width="30" height="30" as="geometry" />
        </mxCell>
      </root>
    </mxGraphModel>
  </diagram>
</mxfile>
